<svg preserveAspectRatio="none" width="100%" height="100%" overflow="visible" style="display: block;" viewBox="0 0 25 25" fill="none" xmlns="http://www.w3.org/2000/svg">
<g id="Group">
<path id="Vector" d="M5.06614 16.6183C7.5413 19.5659 10.5208 21.8867 13.9216 23.5288C15.2164 24.1401 16.9479 24.8653 18.8771 24.9896C18.9967 24.9948 19.1111 25 19.2307 25C20.5255 25 21.5655 24.5545 22.413 23.6376C22.4182 23.6324 22.4286 23.622 22.4338 23.6117C22.7354 23.2491 23.0786 22.9227 23.4374 22.5756C23.6818 22.3425 23.9314 22.099 24.1706 21.8504C25.2782 20.7004 25.2782 19.2395 24.1602 18.1258L21.0351 15.0124C20.5047 14.4633 19.8703 14.1732 19.2047 14.1732C18.5391 14.1732 17.8995 14.4633 17.3535 15.0073L15.492 16.8618C15.3204 16.7634 15.1436 16.6753 14.9772 16.5924C14.7692 16.4888 14.5768 16.3904 14.4052 16.2816C12.71 15.2093 11.1708 13.8106 9.69926 12.0131C8.95567 11.0754 8.45648 10.288 8.10809 9.48508C8.59688 9.04476 9.05447 8.58371 9.49646 8.13303C9.65246 7.97244 9.81366 7.81185 9.97485 7.65126C10.5364 7.09179 10.838 6.44426 10.838 5.78637C10.838 5.12847 10.5416 4.48094 9.97485 3.92147L8.42528 2.37775C8.24328 2.19644 8.07169 2.02031 7.89489 1.839C7.55169 1.48674 7.1929 1.12412 6.83931 0.797762C6.30372 0.274554 5.67453 0 5.00894 0C4.34855 0 3.71416 0.274554 3.15777 0.802942L1.213 2.74036C0.505816 3.44488 0.105423 4.29963 0.022224 5.28906C-0.0765743 6.52714 0.152222 7.84293 0.745012 9.43328C1.655 11.8939 3.02777 14.1784 5.06614 16.6183ZM1.291 5.39784C1.3534 4.70887 1.6186 4.13386 2.11779 3.63655L4.05216 1.70949C4.35375 1.4194 4.68654 1.26917 5.00894 1.26917C5.32613 1.26917 5.64853 1.4194 5.94492 1.71985C6.29332 2.04103 6.62091 2.37775 6.9745 2.73518C7.1513 2.91649 7.3333 3.0978 7.5153 3.28429L9.06487 4.82801C9.38726 5.14919 9.55366 5.47555 9.55366 5.79673C9.55366 6.1179 9.38726 6.44426 9.06487 6.76544C8.90367 6.92603 8.74247 7.09179 8.58128 7.25238C8.09769 7.73933 7.64529 8.20037 7.1461 8.6407C7.1357 8.65106 7.1305 8.65624 7.1201 8.6666C6.68851 9.09656 6.75611 9.5058 6.86011 9.81662C6.86531 9.83216 6.87051 9.84252 6.87571 9.85806C7.2761 10.8164 7.83249 11.7281 8.70088 12.816C10.2608 14.7327 11.904 16.2194 13.7136 17.3643C13.9372 17.5093 14.1764 17.6233 14.4 17.7373C14.608 17.8409 14.8004 17.9393 14.972 18.0481C14.9928 18.0584 15.0084 18.0688 15.0292 18.0792C15.2008 18.1672 15.3672 18.2087 15.5336 18.2087C15.9496 18.2087 16.2199 17.9445 16.3083 17.8564L18.2531 15.919C18.5547 15.6185 18.8823 15.4579 19.2047 15.4579C19.5999 15.4579 19.9223 15.7014 20.1251 15.919L23.2606 19.0375C23.8846 19.6591 23.8794 20.3326 23.245 20.9905C23.0266 21.2236 22.7978 21.4463 22.5534 21.6794C22.1894 22.0317 21.8099 22.3943 21.4667 22.8036C20.8687 23.4459 20.1563 23.7464 19.2359 23.7464C19.1475 23.7464 19.0539 23.7412 18.9655 23.736C17.2599 23.6272 15.674 22.9642 14.4832 22.3995C11.2488 20.8402 8.40968 18.6283 6.05412 15.8206C4.11455 13.4946 2.80938 11.3293 1.94619 9.0085C1.4106 7.58392 1.2078 6.43908 1.291 5.39784Z" fill="var(--fill-0, #0C0D0D)"/>
</g>
</svg>
