<svg preserveAspectRatio="none" width="100%" height="100%" overflow="visible" style="display: block;" viewBox="0 0 19 27" fill="none" xmlns="http://www.w3.org/2000/svg">
<g id="Group">
<path id="Vector" d="M9.2312 26.3824C9.0112 26.3824 8.8 26.2768 8.668 26.1008C8.316 25.6168 0 14.1152 0 9.2312C0 4.1448 4.1448 0 9.2312 0C14.3176 0 18.4624 4.1448 18.4624 9.2312C18.4624 14.1152 10.1464 25.608 9.7944 26.1008C9.6536 26.2768 9.4512 26.3824 9.2312 26.3824ZM9.2312 1.3904C4.9104 1.3904 1.3904 4.9104 1.3904 9.2312C1.3904 12.6456 6.6088 20.768 9.2312 24.4992C11.8536 20.7768 17.072 12.6456 17.072 9.2312C17.072 4.9016 13.552 1.3904 9.2312 1.3904Z" fill="var(--fill-0, #0C0D0D)"/>
<path id="Vector_2" d="M9.23147 13.1827C7.04907 13.1827 5.28027 11.4139 5.28027 9.23147C5.28027 7.04907 7.04907 5.28027 9.23147 5.28027C11.4139 5.28027 13.1827 7.04907 13.1827 9.23147C13.1827 11.4139 11.4051 13.1827 9.23147 13.1827ZM9.23147 6.67067C7.81467 6.67067 6.67067 7.82347 6.67067 9.23147C6.67067 10.6483 7.82347 11.7923 9.23147 11.7923C10.6483 11.7923 11.7923 10.6395 11.7923 9.23147C11.7923 7.81467 10.6395 6.67067 9.23147 6.67067Z" fill="var(--fill-0, #0C0D0D)"/>
</g>
</svg>
